<?xml version="1.0" encoding="utf-8"?>
<!-- Generator: Adobe Illustrator 18.0.0, SVG Export Plug-In . SVG Version: 6.00 Build 0)  -->
<!DOCTYPE svg PUBLIC "-//W3C//DTD SVG 1.1//EN" "http://www.w3.org/Graphics/SVG/1.1/DTD/svg11.dtd">
<svg version="1.1" id="Layer_1" xmlns="http://www.w3.org/2000/svg" xmlns:xlink="http://www.w3.org/1999/xlink" x="0px" y="0px"
	 viewBox="3.8 35.8 194.8 28.6" enable-background="new 3.8 35.8 194.8 28.6" xml:space="preserve">
<rect x="112.6" y="35.8" fill="#FFFFFF" width="9.3" height="28.5"/>
<rect x="80.4" y="35.8" fill="#FFFFFF" width="9.3" height="28.5"/>
<polygon opacity="0.29" fill="#003032" enable-background="new    " points="80.4,35.8 89.8,64.3 89.8,40.1 "/>
<polygon opacity="0.29" fill="#003032" enable-background="new    " points="121.9,35.8 112.6,64.3 112.6,40.1 "/>
<path fill="#03B9BE" d="M101.2,54l10.6-18.2h10.1l-16.8,28.6h-7.9L80.4,35.8h10.1L101.2,54z"/>
<g>
	<g>
		<path fill="#FFFFFF" d="M9.5,55.2H7.7l-3.9-9.7h1.8l3,7.3l3-7.3h1.8L9.5,55.2z"/>
		<path fill="#FFFFFF" d="M30.2,45.5V47H25v2.6h4.7v1.5H25v2.6h5.3v1.5h-7v-9.7H30.2z"/>
		<path fill="#FFFFFF" d="M48.4,45.5H50v9.7h-1.8l-5.5-7.1v7.1h-1.6v-9.7h1.6l5.6,7.3v-7.3H48.4z"/>
		<path fill="#FFFFFF" d="M63.5,53c0.4,0.5,1,0.8,1.8,0.8s1.4-0.3,1.8-0.8s0.7-1.2,0.7-2.1v-5.4h1.6v5.4c0,1.4-0.4,2.5-1.2,3.2
			c-0.8,0.8-1.8,1.1-3,1.1s-2.2-0.4-3-1.1c-0.8-0.8-1.2-1.8-1.2-3.2v-5.4h1.6v5.4C62.9,51.7,63.1,52.4,63.5,53z"/>
		<path fill="#FFFFFF" d="M131.9,55.2h-1.6v-9.7h2.6l2.9,6.1l2.9-6.1h2.5v9.7h-1.6v-7.6l-3.4,6.7h-0.9l-3.4-6.7V55.2z"/>
		<path fill="#FFFFFF" d="M159.4,45.5V47h-5.2v2.6h4.7v1.5h-4.7v2.6h5.3v1.5h-7v-9.7H159.4z"/>
		<path fill="#FFFFFF" d="M177.5,45.5h1.6v9.7h-1.8l-5.5-7.1v7.1h-1.6v-9.7h1.6l5.6,7.3L177.5,45.5L177.5,45.5z"/>
		<path fill="#FFFFFF" d="M192.7,53c0.4,0.5,1,0.8,1.8,0.8s1.4-0.3,1.8-0.8c0.4-0.5,0.7-1.2,0.7-2.1v-5.4h1.6v5.4
			c0,1.4-0.4,2.5-1.2,3.2c-0.8,0.8-1.8,1.1-3,1.1s-2.2-0.4-3-1.1c-0.8-0.8-1.2-1.8-1.2-3.2v-5.4h1.6v5.4
			C192,51.7,192.2,52.4,192.7,53z"/>
	</g>
</g>
</svg>
